<?xml version="1.0" standalone="no"?>
<!DOCTYPE svg PUBLIC "-//W3C//DTD SVG 20010904//EN"
 "http://www.w3.org/TR/2001/REC-SVG-20010904/DTD/svg10.dtd">
<svg version="1.0" xmlns="http://www.w3.org/2000/svg"
 width="512.000000pt" height="512.000000pt" viewBox="0 0 512.000000 512.000000"
 preserveAspectRatio="xMidYMid meet">
<metadata>
Created by potrace 1.11, written by Peter Selinger 2001-2013
</metadata>
<g transform="translate(0.000000,512.000000) scale(0.100000,-0.100000)"
fill="#000000" stroke="none">
<path d="M2330 5110 c-494 -48 -950 -230 -1350 -538 -195 -150 -448 -432 -594
-662 -63 -99 -186 -351 -230 -471 -49 -134 -102 -340 -128 -499 -31 -195 -31
-565 0 -760 45 -276 116 -498 237 -745 132 -269 269 -460 489 -681 221 -220
412 -357 681 -489 247 -121 469 -192 745 -237 195 -31 565 -31 760 0 276 45
498 116 745 237 269 132 460 269 681 489 220 221 357 412 489 681 88 179 132
296 180 476 63 240 78 371 78 649 0 278 -15 409 -78 649 -48 180 -92 297 -180
476 -132 269 -269 460 -489 681 -221 220 -412 357 -681 489 -246 121 -474 193
-740 235 -147 23 -475 34 -615 20z m580 -180 c522 -76 997 -321 1370 -706 295
-305 492 -654 600 -1065 99 -377 99 -821 0 -1198 -179 -680 -640 -1245 -1265
-1551 -346 -169 -666 -243 -1055 -243 -389 0 -709 74 -1055 243 -625 306
-1086 871 -1265 1551 -99 377 -99 821 0 1198 179 680 640 1245 1265 1551 444
217 916 291 1405 220z"/>
<path d="M1569 3754 c-111 -34 -225 -127 -274 -224 -28 -55 -55 -150 -55 -192
l0 -28 80 0 79 0 6 38 c19 109 72 184 162 228 78 39 185 41 253 6 93 -48 152
-127 168 -225 l7 -42 69 -3 c38 -2 74 -1 81 2 22 8 0 122 -38 200 -81 163
-234 257 -416 255 -42 0 -97 -7 -122 -15z"/>
<path d="M3288 3751 c-123 -39 -217 -121 -275 -237 -38 -78 -60 -192 -38 -200
7 -3 43 -4 81 -2 l69 3 7 42 c16 98 75 177 168 225 68 35 175 33 253 -6 90
-44 143 -119 162 -228 l6 -38 79 0 80 0 0 28 c0 42 -27 137 -55 192 -31 61
-115 148 -177 182 -107 59 -249 74 -360 39z"/>
<path d="M970 2169 c0 -50 7 -139 15 -198 53 -358 202 -659 454 -910 334 -334
787 -502 1245 -461 224 19 390 66 591 166 273 135 516 367 670 638 126 224
205 517 205 765 l0 91 -1590 0 -1590 0 0 -91z m1760 -625 c274 -52 509 -216
639 -446 17 -30 31 -57 31 -61 0 -11 -118 -87 -198 -127 -107 -53 -190 -83
-319 -116 -100 -26 -122 -28 -313 -29 -136 0 -229 5 -275 14 -106 21 -264 75
-363 124 -88 44 -212 122 -212 134 0 4 14 31 31 61 99 176 279 328 474 402
152 57 347 74 505 44z"/>
</g>
</svg>
